DataType=double
version=3
OpenSimVersion=4.2
endheader
time	ground_force_r_vx	ground_force_r_vy	ground_force_r_vz	ground_force_r_px	ground_force_r_py	ground_force_r_pz	ground_force_l_vx	ground_force_l_vy	ground_force_l_vz	ground_force_l_px	ground_force_l_py	ground_force_l_pz	ground_torque_r_x	ground_torque_r_y	ground_torque_r_z	ground_torque_l_x	ground_torque_l_y	ground_torque_l_z
0.9663711820736423	0	0	0	0	0	0	-4444.709892830734	458.4310226285206	0	0	0	0	0	0	0	0	0	-118.0630633605594
0.9668630379840105	0	0	0	0	0	0	-1570.980380056091	173.6572901938865	0	0	0	0	0	0	0	0	0	-41.84938642038874
0.9673548938943787	0	0	0	0	0	0	-1653.407908295253	180.2588075441118	0	0	0	0	0	0	0	0	0	-44.56729349024934
0.9678467498047469	0	0	0	0	0	0	-2333.669964009847	251.2833269040204	0	0	0	0	0	0	0	0	0	-62.84625750996086
0.9683386057151151	0	0	0	0	0	0	-2221.834187718584	241.6812967577281	0	0	0	0	0	0	0	0	0	-59.79996169770421
0.9688304616254834	0	0	0	0	0	0	-1685.755419699057	187.1209049285625	0	0	0	0	0	0	0	0	0	-45.62063910551696
0.9693223175358515	0	0	0	0	0	0	-1203.065550192962	135.6709085431728	0	0	0	0	0	0	0	0	0	-32.97647904056208
0.9698141734462198	0	0	0	0	0	0	-879.2766888135674	100.1150380885075	0	0	0	0	0	0	0	0	0	-24.51547639818333
0.9703060293565879	0	0	0	0	0	0	-648.6674015898932	74.54580493601958	0	0	0	0	0	0	0	0	0	-18.54285385028442
0.9707978852669562	0	0	0	0	0	0	-471.1671703586121	54.72946021560557	0	0	0	0	0	0	0	0	0	-14.0816298592935
0.9712897411773244	0	0	0	0	0	0	-385.403029511969	45.11958287611334	0	0	0	0	0	0	0	0	0	-12.05431250635453
0.9717815970876926	0	0	0	0	0	0	-366.5633229078576	43.05307888285486	0	0	0	0	0	0	0	0	0	-11.63188176933477
0.9722734529980608	0	0	0	0	0	0	-323.7544780798204	38.07899368072172	0	0	0	0	0	0	0	0	0	-10.3780307401649
0.972765308908429	0	0	0	0	0	0	-291.9487683289628	34.4197678689609	0	0	0	0	0	0	0	0	0	-9.418373683753419
0.9732571648187972	0	0	0	0	0	0	-328.3816614633504	38.81302060144813	0	0	0	0	0	0	0	0	0	-10.33086346023076
0.9737490207291655	0	0	0	0	0	0	-348.7834934447625	41.35248722430575	0	0	0	0	0	0	0	0	0	-10.83384866060851
0.9742408766395336	0	0	0	0	0	0	-272.7558834785866	32.51168657266937	0	0	0	0	0	0	0	0	0	-8.808180848590327
0.9747327325499019	0	0	0	0	0	0	-255.7405100611504	30.73460794231343	0	0	0	0	0	0	0	0	0	-8.723339512628584
0.97522458846027	0	0	0	0	0	0	-440.368191948195	53.45714715302444	0	0	0	0	0	0	0	0	0	-14.57588498787833
0.9757164443706383	0	0	0	0	0	0	-662.6368546639243	81.05353629733158	0	0	0	0	0	0	0	0	0	-21.50286446481445
0.9762083002810065	0	0	0	0	0	0	-745.6954999237591	91.56891256395086	0	0	0	0	0	0	0	0	0	-24.28753281218578
0.9767001561913747	0	0	0	0	0	0	-789.7752007268759	97.11133823268003	0	0	0	0	0	0	0	0	0	-25.75318696757533
0.9771920121017429	0	0	0	0	0	0	-896.4111260482312	110.438640887206	0	0	0	0	0	0	0	0	0	-29.07448944069636
0.9776838680121112	0	0	0	0	0	0	-1104.335306224137	136.6977742167288	0	0	0	0	0	0	0	0	0	-35.6898136801188
0.9781757239224793	0	0	0	0	0	0	-1442.782196730697	179.8621048964607	0	0	0	0	0	0	0	0	0	-46.51696501293598
0.9786675798328476	0	0	0	0	0	0	-1816.6758359269	227.9743582062882	0	0	0	0	0	0	0	0	0	-58.46132245817751
0.9791594357432157	0	0	0	0	0	0	-2124.830053377317	268.0402466460653	0	0	0	0	0	0	0	0	0	-68.31534782093388
0.979651291653584	0	0	0	0	0	0	-2438.042672116964	309.0209004346499	0	0	0	0	0	0	0	0	0	-78.19778444033093
0.9801431475639522	0	0	0	0	0	0	-2855.372315381406	364.2596955783838	0	0	0	0	0	0	0	0	0	-91.36105646009392
0.9806350034743204	0	0	0	0	0	0	-3447.788056344117	444.2194607342304	0	0	0	0	0	0	0	0	0	-110.3585583077633
0.9811268593846886	0	0	0	0	0	0	-4320.629303994104	564.5115851411211	0	0	0	0	0	0	0	0	0	-138.765544000909
0.9816187152950568	0	0	0	0	0	0	-5689.204506721231	759.4427659705109	0	0	0	0	0	0	0	0	0	-184.3797491301053
0.982110571205425	0	0	0	0	0	0	-8103.239502260925	1119.486881559926	0	0	0	0	0	0	0	0	0	-266.0246539945843
0.9826024271157933	0	0	0	0	0	0	-12140.33205172562	1755.730153906652	0	0	0	0	0	0	0	0	0	-400.3564868265719
0.9830942830261614	0	0	0	0	0	0	-18000.51275380509	2766.168278878451	0	0	0	0	0	0	0	0	0	-588.9444419856786
0.9835861389365297	0	0	0	0	0	0	-24170.33912900765	4002.946130599936	0	0	0	0	0	0	0	0	0	-776.0423599427493
0.9840779948468978	0	0	0	0	0	0	-28407.30107357679	5262.698176563131	0	0	0	0	0	0	0	0	0	-887.3491564648654
0.9845698507572661	0	0	0	0	0	0	-31980.39419700065	7523.89562155508	0	0	0	0	0	0	0	0	0	-948.9517647504418
0.9850617066676343	0	0	0	0	0	0	-28944.89013726279	10351.68941538797	0	0	0	0	0	0	0	0	0	-772.8710937208609
0.9855535625780025	0	0	0	0	0	0	-18572.83457056641	10913.47683946266	0	0	0	0	0	0	0	0	0	-405.4651370735387
0.9860454184883707	0	0	0	0	0	0	-10352.89947530695	9289.230059051164	0	0	0	0	0	0	0	0	0	-162.9724079614963
0.986537274398739	0	0	0	0	0	0	-6777.773644020675	7267.92825375378	0	0	0	0	0	0	0	0	0	-84.17686567665578
0.9870291303091071	0	0	0	0	0	0	-5588.283825495599	6180.504522933042	0	0	0	0	0	0	0	0	0	-66.26400349481911
0.9875209862194754	0	0	0	0	0	0	-4064.429952251005	6253.185937491225	0	0	0	0	0	0	0	0	0	-16.70972488100233
0.9880128421298435	0	0	0	0	0	0	-4261.241420379037	6609.518766112471	0	0	0	0	0	0	0	0	0	-17.42557237764532
0.9885046980402118	0	0	0	0	0	0	-4207.349590766454	7095.425294494936	0	0	0	0	0	0	0	0	0	-7.995187768817161
0.9889965539505799	0	0	0	0	0	0	-4632.861453241519	7557.280608267838	0	0	0	0	0	0	0	0	0	-14.61957753118091
0.9894884098609482	0	0	0	0	0	0	-4213.015137336249	9625.108158114985	0	0	0	0	0	0	0	0	0	33.70352641010425
0.9899802657713164	0	0	0	0	0	0	-7488.222498822359	12788.22463445624	0	0	0	0	0	0	0	0	0	-17.86046618705072
0.9904721216816846	0	0	0	0	0	0	-9058.281185365353	9584.16682002929	0	0	0	0	0	0	0	0	0	-124.9248678562247
0.9909639775920528	0	0	0	0	0	0	0	0	0	0	0	0	0	0	0	0	0	0
0.9914558335024211	0	0	0	0	0	0	0	0	0	0	0	0	0	0	0	0	0	0
0.9919476894127892	0	0	0	0	0	0	0	0	0	0	0	0	0	0	0	0	0	0
0.9924395453231575	0	0	0	0	0	0	0	0	0	0	0	0	0	0	0	0	0	0
0.9929314012335256	0	0	0	0	0	0	0	0	0	0	0	0	0	0	0	0	0	0
0.9934232571438939	0	0	0	0	0	0	0	0	0	0	0	0	0	0	0	0	0	0
0.9939151130542621	0	0	0	0	0	0	0	0	0	0	0	0	0	0	0	0	0	0
0.9944069689646303	0	0	0	0	0	0	0	0	0	0	0	0	0	0	0	0	0	0
0.9948988248749985	0	0	0	0	0	0	0	0	0	0	0	0	0	0	0	0	0	0
0.9953906807853667	0	0	0	0	0	0	0	0	0	0	0	0	0	0	0	0	0	0
0.9958825366957349	0	0	0	0	0	0	0	0	0	0	0	0	0	0	0	0	0	0
0.9963743926061032	0	0	0	0	0	0	0	0	0	0	0	0	0	0	0	0	0	0
0.9968662485164713	0	0	0	0	0	0	0	0	0	0	0	0	0	0	0	0	0	0
0.9973581044268396	0	0	0	0	0	0	0	0	0	0	0	0	0	0	0	0	0	0
0.9978499603372077	0	0	0	0	0	0	0	0	0	0	0	0	0	0	0	0	0	0
0.998341816247576	0	0	0	0	0	0	0	0	0	0	0	0	0	0	0	0	0	0
0.9988336721579442	0	0	0	0	0	0	4.330047786494285e-14	-1.676630491427053e-14	0	0	0	0	0	0	0	0	0	1.509499353679209e-15
0.9993255280683124	0	0	0	0	0	0	0.07617331768137947	-0.0314141472298731	0	0	0	0	0	0	0	0	0	0.002641234185974857
0.9998173839786806	0	0	0	0	0	0	0.02066607912305311	-0.008615375772487712	0	0	0	0	0	0	0	0	0	0.0007191411772065793
1.000309239889049	0	0	0	0	0	0	2.552277199504054	-1.100996294821942	0	0	0	0	0	0	0	0	0	0.08871466499069595
1.000801095799417	0	0	0	0	0	0	-508.5043535722515	247.9411671582592	0	0	0	0	0	0	0	0	0	-17.29208854633434
1.001292951709785	0	0	0	0	0	0	-1370.8273103821	937.9078071110616	0	0	0	0	0	0	0	0	0	-42.35878285403071
1.001784807620153	0	0	0	0	0	0	2612.590287673704	2463.636029143328	0	0	0	0	0	0	0	0	0	148.2734033345403
1.002276663530522	0	0	0	0	0	0	6637.01186168758	4191.464638003313	0	0	0	0	0	0	0	0	0	339.76040260873
